<?xml version="1.0" encoding="utf-8"?>
<!-- Generator: Adobe Illustrator 20.0.0, SVG Export Plug-In . SVG Version: 6.00 Build 0)  -->
<svg version="1.1" id="Layer_1" xmlns="http://www.w3.org/2000/svg" xmlns:xlink="http://www.w3.org/1999/xlink" x="0px" y="0px"
	 viewBox="0 0 73 83" style="enable-background:new 0 0 73 83;" xml:space="preserve">
<style type="text/css">
	.st0{fill:#009639;}
	.st1{fill:#007A33;}
	.st2{fill:#215732;}
	.st3{fill:#FFFFFF;}
</style>
<g>
	<g>
		<path class="st0" d="M36.5,0.5c-0.9,0-1.7,0.2-2.5,0.7L2.8,19.2c-1.5,0.9-2.5,2.5-2.5,4.3v36.1c0,0.9,0.2,1.7,0.7,2.5l35.5-20.5
			C36.5,41.5,36.5,14.9,36.5,0.5z"/>
		<path class="st1" d="M1,62c0.4,0.7,1,1.4,1.8,1.8L34,81.9c1.5,0.9,3.4,0.9,4.9,0l31.3-18.1c0.8-0.4,1.4-1.1,1.8-1.8L36.5,41.5
			C36.5,41.5,13.5,54.8,1,62z"/>
		<path class="st2" d="M72,62c0.4-0.7,0.7-1.6,0.7-2.5l0-36.1c0-1.8-0.9-3.4-2.5-4.3L39,1.1c-0.8-0.4-1.6-0.7-2.5-0.7l0,41
			C36.5,41.5,59.5,54.8,72,62z"/>
	</g>
	<g>
		<path class="st3" d="M46.9,34.6L37.3,29c-0.5-0.3-1-0.3-1.5,0l-9.6,5.6c-0.5,0.3-0.8,0.8-0.8,1.3V47c0,0.5,0.3,1,0.8,1.3l9.6,5.6
			c0.2,0.1,0.5,0.2,0.8,0.2s0.5-0.1,0.8-0.2l9.6-5.6c0.5-0.3,0.8-0.8,0.8-1.3V35.9C47.6,35.4,47.3,34.8,46.9,34.6z"/>
		<g>
			<path class="st3" d="M36.5,42.4c-0.5,0-0.9-0.4-0.9-0.9V15.7c0-0.5,0.4-0.9,0.9-0.9s0.9,0.4,0.9,0.9v25.8
				C37.4,42,37,42.4,36.5,42.4z"/>
			<path class="st3" d="M36.5,16.7c-2.2,0-4-1.8-4-4c0-2.2,1.8-4,4-4c2.2,0,4,1.8,4,4C40.5,14.8,38.7,16.7,36.5,16.7z M36.5,10.4
				c-1.2,0-2.2,1-2.2,2.2c0,1.2,1,2.2,2.2,2.2c1.2,0,2.2-1,2.2-2.2C38.7,11.4,37.7,10.4,36.5,10.4z"/>
		</g>
		<g>
			<path class="st3" d="M36.5,42.4c-0.2,0-0.3,0-0.5-0.1L13.7,29.4c-0.4-0.3-0.6-0.8-0.3-1.2c0.3-0.4,0.8-0.6,1.2-0.3L37,40.7
				c0.4,0.3,0.6,0.8,0.3,1.2C37.1,42.2,36.8,42.4,36.5,42.4z"/>
			<path class="st3" d="M11.5,31.1c-0.7,0-1.4-0.2-2-0.5C7.5,29.4,6.9,27,8,25c0.5-0.9,1.4-1.6,2.5-1.9c1-0.3,2.1-0.1,3.1,0.4
				c0.9,0.5,1.6,1.4,1.9,2.5c0.3,1,0.1,2.1-0.4,3.1C14.2,30.4,12.9,31.1,11.5,31.1z M11.5,24.8c-0.2,0-0.4,0-0.6,0.1
				c-0.6,0.2-1.1,0.5-1.3,1c-0.6,1.1-0.2,2.4,0.8,3c1.1,0.6,2.4,0.2,3-0.8c0.3-0.5,0.4-1.1,0.2-1.7s-0.5-1.1-1-1.3l0,0
				C12.3,24.9,11.9,24.8,11.5,24.8z"/>
		</g>
		<g>
			<path class="st3" d="M14.2,55.3c-0.3,0-0.6-0.2-0.8-0.5c-0.3-0.4-0.1-1,0.3-1.2L36,40.7c0.4-0.3,1-0.1,1.2,0.3
				c0.3,0.4,0.1,1-0.3,1.2L14.7,55.2C14.5,55.2,14.4,55.3,14.2,55.3z"/>
			<path class="st3" d="M11.5,60c-0.4,0-0.7,0-1.1-0.1c-1-0.3-1.9-0.9-2.5-1.9c-0.5-0.9-0.7-2-0.4-3.1c0.3-1,0.9-1.9,1.9-2.5l0,0
				c0.9-0.5,2-0.7,3.1-0.4c1,0.3,1.9,0.9,2.5,1.9c0.5,0.9,0.7,2,0.4,3.1c-0.3,1-0.9,1.9-1.9,2.5C12.9,59.8,12.2,60,11.5,60z
				 M11.5,53.7c-0.4,0-0.8,0.1-1.1,0.3l0,0c-0.5,0.3-0.9,0.8-1,1.3c-0.2,0.6-0.1,1.2,0.2,1.7c0.3,0.5,0.8,0.9,1.3,1
				c0.6,0.2,1.2,0.1,1.7-0.2c0.5-0.3,0.9-0.8,1-1.3s0.1-1.2-0.2-1.7c-0.3-0.5-0.8-0.9-1.3-1C11.9,53.7,11.7,53.7,11.5,53.7z
				 M9.9,53.2L9.9,53.2L9.9,53.2z"/>
		</g>
		<g>
			<path class="st3" d="M36.5,68.2c-0.5,0-0.9-0.4-0.9-0.9V41.5c0-0.5,0.4-0.9,0.9-0.9s0.9,0.4,0.9,0.9v25.8
				C37.4,67.8,37,68.2,36.5,68.2z"/>
			<path class="st3" d="M36.5,74.4c-2.2,0-4-1.8-4-4c0-2.2,1.8-4,4-4c2.2,0,4,1.8,4,4C40.5,72.6,38.7,74.4,36.5,74.4z M36.5,68.2
				c-1.2,0-2.2,1-2.2,2.2c0,1.2,1,2.2,2.2,2.2c1.2,0,2.2-1,2.2-2.2C38.7,69.2,37.7,68.2,36.5,68.2z"/>
		</g>
		<g>
			<path class="st3" d="M58.8,55.3c-0.2,0-0.3,0-0.5-0.1L36,42.3c-0.4-0.3-0.6-0.8-0.3-1.2c0.3-0.4,0.8-0.6,1.2-0.3l22.3,12.9
				c0.4,0.3,0.6,0.8,0.3,1.2C59.4,55.1,59.1,55.3,58.8,55.3z"/>
			<path class="st3" d="M61.5,60c-0.7,0-1.4-0.2-2-0.5l0,0c-0.9-0.5-1.6-1.4-1.9-2.5c-0.3-1-0.1-2.1,0.4-3.1
				c0.5-0.9,1.4-1.6,2.5-1.9c1-0.3,2.1-0.1,3.1,0.4c0.9,0.5,1.6,1.4,1.9,2.5c0.3,1,0.1,2.1-0.4,3.1c-0.5,0.9-1.4,1.6-2.5,1.9
				C62.2,59.9,61.9,60,61.5,60z M61.5,53.7c-0.2,0-0.4,0-0.6,0.1c-0.6,0.2-1.1,0.5-1.3,1c-0.3,0.5-0.4,1.1-0.2,1.7s0.5,1.1,1,1.3v0
				c0.5,0.3,1.1,0.4,1.7,0.2c0.6-0.2,1.1-0.5,1.3-1c0.3-0.5,0.4-1.1,0.2-1.7c-0.2-0.6-0.5-1.1-1-1.3C62.3,53.8,61.9,53.7,61.5,53.7z
				"/>
		</g>
		<g>
			<path class="st3" d="M36.5,42.4c-0.3,0-0.6-0.2-0.8-0.5c-0.3-0.4-0.1-1,0.3-1.2l22.3-12.9c0.4-0.3,1-0.1,1.2,0.3
				c0.3,0.4,0.1,1-0.3,1.2L37,42.3C36.8,42.4,36.7,42.4,36.5,42.4z"/>
			<path class="st3" d="M61.5,31.1c-1.4,0-2.8-0.7-3.5-2c-0.5-0.9-0.7-2-0.4-3.1c0.3-1,0.9-1.9,1.9-2.5c0.9-0.5,2-0.7,3.1-0.4
				c1,0.3,1.9,0.9,2.5,1.9c0.5,0.9,0.7,2,0.4,3.1c-0.3,1-0.9,1.9-1.9,2.5l0,0C62.9,30.9,62.2,31.1,61.5,31.1z M63.1,29.8L63.1,29.8
				L63.1,29.8z M61.5,24.8c-0.4,0-0.8,0.1-1.1,0.3c-0.5,0.3-0.9,0.8-1,1.3s-0.1,1.2,0.2,1.7c0.6,1.1,2,1.4,3,0.8
				c0.5-0.3,0.9-0.8,1-1.3c0.2-0.6,0.1-1.2-0.2-1.7c-0.3-0.5-0.8-0.9-1.3-1C61.9,24.9,61.7,24.8,61.5,24.8z"/>
		</g>
	</g>
</g>
</svg>
