<?xml version="1.0" encoding="utf-8"?>
<!-- Generator: Adobe Illustrator 20.0.0, SVG Export Plug-In . SVG Version: 6.00 Build 0)  -->
<svg version="1.1" id="Layer_1" xmlns="http://www.w3.org/2000/svg" xmlns:xlink="http://www.w3.org/1999/xlink" x="0px" y="0px"
	 viewBox="0 0 73 83" style="enable-background:new 0 0 73 83;" xml:space="preserve">
<style type="text/css">
	.st0{fill:#019648;}
	.st1{fill:#007B3F;}
	.st2{fill:#215732;}
	.st3{fill:#62BC7F;}
	.st4{fill:#FFFFFF;}
</style>
<g>
	<path class="st0" d="M36.5,0.5c-0.9,0-1.7,0.2-2.5,0.7L2.8,19.2c-1.5,0.9-2.5,2.5-2.5,4.3v36.1c0,0.9,0.2,1.7,0.7,2.5l35.5-20.5
		C36.5,41.5,36.5,14.9,36.5,0.5z"/>
	<path class="st1" d="M1,62c0.4,0.7,1,1.4,1.8,1.8L34,81.9c1.5,0.9,3.4,0.9,4.9,0l31.3-18.1c0.8-0.4,1.4-1.1,1.8-1.8L36.5,41.5
		C36.5,41.5,13.5,54.8,1,62z"/>
	<path class="st2" d="M72,62c0.4-0.7,0.7-1.6,0.7-2.5l0-36.1c0-1.8-0.9-3.4-2.5-4.3L39,1.1c-0.8-0.4-1.6-0.7-2.5-0.7l0,41
		C36.5,41.5,59.5,54.8,72,62z"/>
	<path class="st3" d="M46.9,34.6l-9.6-5.6c-0.2-0.1-0.5-0.2-0.8-0.2c-0.3,0-0.5,0.1-0.8,0.2l-9.6,5.6c-0.5,0.3-0.8,0.8-0.8,1.3v5.6
		v5.6c0,0.5,0.3,1,0.8,1.3l9.6,5.6c0.2,0.1,0.5,0.2,0.8,0.2h0c0.3,0,0.5-0.1,0.8-0.2l9.6-5.6c0.5-0.3,0.8-0.8,0.8-1.3v-5.6v-5.6
		C47.6,35.4,47.3,34.9,46.9,34.6z"/>
	<path class="st4" d="M46.9,34.6l-9.6-5.6c-0.2-0.1-0.5-0.2-0.8-0.2c-0.3,0-0.5,0.1-0.8,0.2l-9.6,5.6c-0.2,0.1-0.4,0.3-0.6,0.6
		c-0.1,0.2-0.2,0.5-0.2,0.8v5.6v5.6c0,0.5,0.3,1,0.8,1.3l9.6,5.6c0.2,0.1,0.5,0.2,0.8,0.2h0c0.3,0,0.5-0.1,0.8-0.2l9.6-5.6
		c0.5-0.3,0.8-0.8,0.8-1.3v-5.6v-5.6C47.6,35.4,47.3,34.9,46.9,34.6z"/>
</g>
</svg>
